<svg version="1.0"
    xmlns="http://www.w3.org/2000/svg" width="439.000000pt" height="420.000000pt" viewBox="0 0 439.000000 420.000000" preserveAspectRatio="xMidYMid meet">

    <g transform="translate(0.000000,420.000000) scale(0.100000,-0.100000)" fill="#000000" stroke="none">
        <path d="M985 4055 c-142 -27 -242 -82 -356 -195 -107 -106 -160 -198 -189
-325 -21 -89 -21 -108 -18 -1260 3 -1088 4 -1174 21 -1230 58 -196 198 -371
366 -458 150 -78 32 -72 1386 -72 l1210 0 89 29 c253 83 440 314 476 590 9 64
11 391 7 1224 -4 1047 -6 1141 -22 1192 -62 195 -187 346 -365 443 -142 77
-36 72 -1355 74 -949 1 -1194 -1 -1250 -12z m2399 -295 c124 -39 247 -158 281
-274 13 -44 15 -209 15 -1193 0 -1100 0 -1144 -19 -1197 -53 -150 -189 -264
-356 -296 -44 -8 -358 -10 -1140 -8 l-1080 3 -65 23 c-159 58 -271 187 -301
348 -8 42 -10 372 -6 1177 l5 1118 31 64 c52 111 147 196 266 237 46 16 134
17 1176 18 1106 0 1128 0 1193 -20z"/>
        <path d="M1278 3503 c5 -40 -14 -1107 -24 -1374 l-6 -157 84 -7 c240 -19 436
-71 598 -158 182 -97 192 -101 260 -105 62 -4 70 -2 155 44 179 94 202 105
310 139 122 39 287 72 412 82 l83 6 0 161 c0 220 -22 1400 -26 1405 -8 9 -215
-33 -322 -65 -230 -70 -419 -187 -543 -339 -34 -42 -65 -72 -69 -68 -4 4 -22
28 -40 53 -139 186 -435 343 -761 405 -117 22 -116 22 -111 -22z m356 -287
c55 -19 129 -50 163 -69 125 -71 239 -180 286 -273 11 -22 16 -65 17 -160 1
-71 1 -134 1 -139 -1 -6 -27 14 -58 45 -118 114 -280 201 -451 242 -48 12 -93
22 -99 24 -10 3 -13 48 -13 184 l0 180 26 0 c15 0 72 -15 128 -34z m1278 24
c2 -5 2 -88 0 -183 l-3 -173 -85 -17 c-184 -38 -337 -119 -491 -261 l-43 -39
0 138 c0 124 2 141 22 174 100 165 262 284 470 345 91 27 125 31 130 16z
m-1327 -587 c227 -70 403 -210 497 -397 29 -57 23 -65 -17 -20 -5 7 -43 37
-83 67 -95 73 -253 149 -377 183 -55 14 -106 28 -112 30 -13 3 -19 144 -7 156
6 7 29 2 99 -19z m1330 -57 l0 -78 -92 -23 c-173 -44 -359 -140 -481 -248 -29
-26 -55 -47 -58 -47 -11 0 58 113 109 178 101 128 250 226 418 276 46 14 89
24 94 22 6 -1 10 -37 10 -80z m87 -356 l-4 -69 -31 -5 c-18 -3 -57 -8 -89 -11
-115 -12 -319 -73 -430 -129 l-106 -53 36 43 c88 106 288 217 476 264 161 41
152 44 148 -40z m-1468 40 c121 -25 221 -64 311 -123 77 -50 189 -148 207
-180 10 -20 10 -20 -23 2 -110 73 -316 146 -484 171 -38 5 -85 12 -102 15
l-33 6 0 64 c0 49 3 65 14 65 8 0 57 -9 110 -20z"/>
        <path d="M922 2213 l3 -858 495 0 495 0 3 108 3 107 -169 0 c-93 0 -271 3
-397 7 l-228 6 5 744 4 743 -108 0 -108 0 2 -857z"/>
        <path d="M3270 2325 l0 -745 -392 -2 -393 -3 0 -110 0 -110 495 0 495 0 3 858
2 857 -105 0 -105 0 0 -745z"/>
        <path d="M2320 1657 c-49 -25 -63 -28 -130 -25 -53 2 -89 10 -123 27 -52 25
-70 22 -44 -7 15 -16 17 -54 17 -325 0 -169 4 -307 8 -307 5 0 19 12 33 26 13
14 45 44 72 66 l47 40 74 -66 73 -65 7 67 c3 37 6 175 6 306 0 210 2 242 17
258 29 32 0 35 -57 5z"/>
    </g>
</svg>
